HIERARCHY
ROOT Hips
{
	OFFSET 0.000000 0.000000 0.000000
	CHANNELS 6 Xposition Yposition Zposition Zrotation Yrotation Xrotation 
	JOINT LHipJoint
	{
		OFFSET 0.000000 0.000000 0.000000
		CHANNELS 3 Zrotation Yrotation Xrotation
		JOINT LeftUpLeg
		{
			OFFSET 1.363060 -1.794630 0.839290
			CHANNELS 3 Zrotation Yrotation Xrotation
			JOINT LeftLeg
			{
				OFFSET 2.448110 -6.726130 0.000000
				CHANNELS 3 Zrotation Yrotation Xrotation
				JOINT LeftFoot
				{
					OFFSET 2.562200 -7.039590 0.000000
					CHANNELS 3 Zrotation Yrotation Xrotation
					JOINT LeftToeBase
					{
						OFFSET 0.157640 -0.433110 2.322550
						CHANNELS 3 Zrotation Yrotation Xrotation
						End Site
						{
							OFFSET 0.000000 0.000000 0.000000
						}
					}
				}
			}
		}
	}
	JOINT RHipJoint
	{
		OFFSET 0.000000 0.000000 0.000000
		CHANNELS 3 Zrotation Yrotation Xrotation
		JOINT RightUpLeg
		{
			OFFSET -1.305520 -1.794630 0.839290
			CHANNELS 3 Zrotation Yrotation Xrotation
			JOINT RightLeg
			{
				OFFSET -2.542530 -6.985550 0.000000
				CHANNELS 3 Zrotation Yrotation Xrotation
				JOINT RightFoot
				{
					OFFSET -2.568260 -7.056230 0.000000
					CHANNELS 3 Zrotation Yrotation Xrotation
					JOINT RightToeBase
					{
						OFFSET -0.164730 -0.452590 2.363150
						CHANNELS 3 Zrotation Yrotation Xrotation
						End Site
						{
							OFFSET 0.000000 0.000000 0.000000
						}
					}
				}
			}
		}
	}
	JOINT LowerBack
	{
		OFFSET 0.000000 0.000000 0.000000
		CHANNELS 3 Zrotation Yrotation Xrotation
		JOINT Spine
		{
			OFFSET 0.028270 2.035590 -0.193380
			CHANNELS 3 Zrotation Yrotation Xrotation
			JOINT Spine1
			{
				OFFSET 0.056720 2.048850 -0.042750
				CHANNELS 3 Zrotation Yrotation Xrotation
				JOINT Neck
				{
					OFFSET 0.000000 0.000000 0.000000
					CHANNELS 3 Zrotation Yrotation Xrotation
					JOINT Neck1
					{
						OFFSET -0.054170 1.746240 0.172020
						CHANNELS 3 Zrotation Yrotation Xrotation
						JOINT Head
						{
							OFFSET 0.104070 1.761360 -0.123970
							CHANNELS 3 Zrotation Yrotation Xrotation
							End Site
							{
								OFFSET 0.000000 0.000000 0.000000
							}
						}
					}
				}
				JOINT LeftShoulder
				{
					OFFSET 0.000000 0.000000 0.000000
					CHANNELS 3 Zrotation Yrotation Xrotation
					JOINT LeftArm
					{
						OFFSET 3.362410 1.200890 -0.311210
						CHANNELS 3 Zrotation Yrotation Xrotation
						JOINT LeftForeArm
						{
							OFFSET 4.983000 -0.000000 -0.000000
							CHANNELS 3 Zrotation Yrotation Xrotation
							JOINT LeftHand
							{
								OFFSET 3.483560 -0.000000 -0.000000
								CHANNELS 3 Zrotation Yrotation Xrotation
								JOINT LeftFingerBase
								{
									OFFSET 0.000000 0.000000 0.000000
									CHANNELS 3 Zrotation Yrotation Xrotation
									JOINT LeftHandIndex1
									{
										OFFSET 0.715260 -0.000000 -0.000000
										CHANNELS 3 Zrotation Yrotation Xrotation
										End Site
										{
											OFFSET 0.000000 0.000000 0.000000
										}
									}
								}
								JOINT LThumb
								{
									OFFSET 0.000000 0.000000 0.000000
									CHANNELS 3 Zrotation Yrotation Xrotation
									End Site
									{
										OFFSET 0.000000 0.000000 0.000000
									}
								}
							}
						}
					}
				}
				JOINT RightShoulder
				{
					OFFSET 0.000000 0.000000 0.000000
					CHANNELS 3 Zrotation Yrotation Xrotation
					JOINT RightArm
					{
						OFFSET -3.136600 1.374050 -0.404650
						CHANNELS 3 Zrotation Yrotation Xrotation
						JOINT RightForeArm
						{
							OFFSET -5.241900 -0.000000 -0.000000
							CHANNELS 3 Zrotation Yrotation Xrotation
							JOINT RightHand
							{
								OFFSET -3.444170 -0.000000 -0.000000
								CHANNELS 3 Zrotation Yrotation Xrotation
								JOINT RightFingerBase
								{
									OFFSET 0.000000 0.000000 0.000000
									CHANNELS 3 Zrotation Yrotation Xrotation
									JOINT RightHandIndex1
									{
										OFFSET -0.622530 -0.000000 -0.000000
										CHANNELS 3 Zrotation Yrotation Xrotation
										End Site
										{
											OFFSET 0.000000 0.000000 0.000000
										}
									}
								}
								JOINT RThumb
								{
									OFFSET 0.000000 0.000000 0.000000
									CHANNELS 3 Zrotation Yrotation Xrotation
									End Site
									{
										OFFSET 0.000000 0.000000 0.000000
									}
								}
							}
						}
					}
				}
			}
		}
	}
}
MOTION
Frames: 7
Frame Time: 0.008333
2.821030 17.568157 26.410376 -143.888606 -76.138715 169.755031 15.915640 -1.632681 -5.423808 -17.458081 -17.860381 -27.048099 -4.676736 13.250354 22.094394 -3.492058 15.542011 3.205963 0.846000 -5.866500 -16.397400 -17.937676 3.139040 -4.152999 21.917848 36.034428 -29.576486 5.640416 -14.621314 20.084626 0.650440 -8.643197 1.561647 -0.000000 0.045600 -0.125400 -7.733012 -1.590503 -5.665319 1.392438 -1.938127 -6.027675 4.264992 -0.693196 -0.982092 -0.462214 -4.208499 -21.784421 14.154752 -5.934099 10.438074 2.424100 -0.879100 13.232400 -4.470441 -8.451770 -2.609129 -73.062930 -4.647069 42.745586 18.391708 -22.029379 -5.301925 -0.854362 -1.514666 -40.782481 18.077654 -4.936052 -1.532100 -7.125000 0.000000 0.000000 -5.215000 25.432000 2.479800 6.606530 12.380475 -1.132071 78.951047 -9.417311 10.069529 -23.051160 24.972479 -6.142429 0.362746 0.985500 -3.847195 -10.175448 -12.798442 2.548900 7.125000 0.000000 0.000000 15.273400 -43.426800 0.608100 
2.827551 17.579984 26.396339 -143.977457 -76.065913 169.813188 15.836438 -1.611040 -5.441773 -17.462296 -17.427654 -26.957564 -4.693332 13.100505 21.883178 -3.417426 15.344645 3.513744 0.870100 -5.947400 -16.631700 -17.849349 3.142057 -4.163066 21.465847 35.719443 -29.457801 5.606004 -14.581785 20.031442 0.932222 -9.599900 1.399181 -0.001400 0.238200 -0.654400 -7.773628 -1.619285 -5.550545 1.409289 -1.980167 -6.025611 4.356800 -0.711450 -0.996641 -0.644722 -4.312503 -21.759525 14.128394 -6.004297 10.470550 2.451200 -0.931100 13.252600 -4.504941 -8.465258 -2.605892 -73.002432 -4.764836 42.301173 18.102258 -21.688522 -5.135113 -0.910985 -1.504270 -40.474657 18.377441 -4.837355 -1.537300 -7.125000 0.000000 0.000000 -4.966100 25.489400 2.353900 6.599809 12.390994 -1.112059 78.778443 -9.477262 10.062868 -23.241759 25.174691 -6.251484 0.407098 0.939527 -4.014180 -11.243858 -12.778607 2.808700 7.125000 0.000000 0.000000 14.271600 -43.475000 0.549000 
2.834073 17.590595 26.381527 -144.155756 -75.975388 169.990481 15.793366 -1.623727 -5.444219 -17.360036 -17.482735 -26.751533 -4.718049 12.969140 21.604698 -3.514916 15.663316 3.666951 0.912200 -6.085900 -17.033800 -17.786015 3.172752 -4.162602 20.804047 35.776138 -29.341929 5.572340 -14.545221 19.907409 1.276382 -10.784206 1.199957 -0.000400 0.126200 -0.346800 -7.833403 -1.661542 -5.485352 1.443036 -2.043034 -6.020277 4.514893 -0.738903 -0.971391 -0.853173 -4.389692 -21.769309 14.087719 -6.020980 10.506577 2.476500 -0.962300 13.276300 -4.541369 -8.484054 -2.607563 -73.084806 -4.963931 41.601711 17.747177 -21.258778 -4.933640 -0.958913 -1.474175 -40.061025 18.488996 -4.820126 -1.557100 -7.125000 0.000000 0.000000 -4.871800 25.458700 2.312400 6.609903 12.405289 -1.078839 78.444424 -9.504605 10.261990 -23.417100 25.348962 -6.338525 0.338845 1.020213 -4.220094 -9.861662 -13.004069 2.510300 7.125000 0.000000 0.000000 15.634400 -43.625400 0.544500 
2.838384 17.602644 26.366937 -144.278317 -75.936366 170.046745 15.738072 -1.618204 -5.455462 -17.351404 -17.336932 -26.543115 -4.739924 12.826343 21.369393 -3.516057 15.680342 3.831191 0.893500 -6.024900 -16.856600 -17.699655 3.192642 -4.163312 20.201305 35.719787 -29.083278 5.528917 -14.481994 19.792260 1.626791 -11.967061 1.100255 -0.000800 0.181900 -0.499700 -7.799648 -1.665578 -5.372637 1.433449 -2.042202 -6.007379 4.447778 -0.745900 -0.966752 -0.843113 -4.423789 -21.745315 14.009853 -6.071743 10.494707 2.433800 -0.996300 13.262500 -4.559781 -8.495890 -2.593654 -72.864167 -4.968399 41.187643 17.540232 -21.028054 -4.820201 -0.997167 -1.481056 -40.092320 18.694632 -4.687187 -1.535600 -7.125000 0.000000 0.000000 -4.693800 25.571200 2.215000 6.595148 12.385342 -1.075768 78.407664 -9.560383 10.231253 -23.636069 25.591011 -6.465283 0.362748 0.982467 -4.386558 -10.654610 -12.874341 2.682000 7.125000 0.000000 0.000000 14.863400 -43.546200 0.546100 
2.843026 17.612923 26.352236 -144.394950 -75.880575 170.102315 15.682077 -1.612254 -5.459787 -17.321324 -17.212809 -26.341805 -4.759332 12.687970 21.134540 -3.533636 15.749850 4.007222 0.899200 -6.043600 -16.911100 -17.605292 3.202539 -4.173351 19.668790 35.538188 -28.844323 5.489043 -14.409082 19.675304 1.944733 -13.022523 1.064235 -0.001600 0.256400 -0.704500 -7.788081 -1.680153 -5.263485 1.440724 -2.062168 -5.996397 4.462601 -0.758804 -0.953930 -0.919805 -4.472257 -21.736590 13.949019 -6.105276 10.498384 2.420600 -1.027600 13.262800 -4.585113 -8.509946 -2.585430 -72.767541 -5.045720 40.644951 17.279535 -20.722302 -4.677782 -1.038960 -1.475837 -39.962341 18.863751 -4.582852 -1.523000 -7.125000 0.000000 0.000000 -4.547100 25.647300 2.137300 6.589211 12.378874 -1.061415 78.267312 -9.605549 10.279571 -23.840843 25.809428 -6.581014 0.360663 0.982271 -4.564898 -10.793819 -12.889337 2.719400 7.125000 0.000000 0.000000 14.743600 -43.574700 0.530900 
2.846895 17.623092 26.337093 -144.501267 -75.826795 170.134932 15.625549 -1.603623 -5.460697 -17.294979 -17.093152 -26.127432 -4.777191 12.550021 20.906170 -3.550039 15.813113 4.174394 0.901500 -6.050900 -16.932100 -17.499552 3.205312 -4.188668 19.171301 35.281853 -28.566004 5.448666 -14.318002 19.547899 2.241469 -13.998079 1.112137 -0.002500 0.325700 -0.895000 -7.754432 -1.682854 -5.151233 1.441322 -2.065080 -5.983461 4.439267 -0.765120 -0.939979 -0.956672 -4.508623 -21.722850 13.882385 -6.138461 10.489914 2.395300 -1.056700 13.253300 -4.608336 -8.524281 -2.574558 -72.641754 -5.104809 40.110950 17.032305 -20.433254 -4.544896 -1.076706 -1.474995 -39.895008 19.009832 -4.459773 -1.499500 -7.125000 0.000000 0.000000 -4.417900 25.748300 2.065800 6.580908 12.367353 -1.051227 78.170523 -9.654917 10.305056 -24.050277 26.034866 -6.701106 0.356982 0.982074 -4.729304 -10.918647 -12.891298 2.750300 7.125000 0.000000 0.000000 14.634400 -43.588800 0.521500 
2.849990 17.632930 26.321397 -144.607859 -75.772143 170.154125 15.567308 -1.591489 -5.458268 -17.274263 -16.961141 -25.908297 -4.792340 12.414720 20.691862 -3.561522 15.857202 4.334142 0.901000 -6.049400 -16.927800 -17.382352 3.197866 -4.210374 18.718939 34.925833 -28.261597 5.407008 -14.213205 19.423341 2.506138 -14.858221 1.249316 -0.003600 0.386200 -1.061100 -7.706947 -1.680195 -5.036774 1.442496 -2.062610 -5.969300 4.412364 -0.768213 -0.922162 -0.986481 -4.529691 -21.708996 13.811520 -6.152765 10.474080 2.368200 -1.078000 13.238100 -4.628647 -8.536627 -2.563699 -72.521128 -5.145026 39.560154 16.797509 -20.160678 -4.420699 -1.112854 -1.479070 -39.881267 19.157413 -4.320532 -1.468200 -7.125000 0.000000 0.000000 -4.285900 25.870100 1.991500 6.573776 12.352251 -1.041553 78.079537 -9.706048 10.321575 -24.262985 26.263035 -6.824574 0.360448 0.971505 -4.870630 -11.223026 -12.854979 2.817500 7.125000 0.000000 0.000000 14.347000 -43.574700 0.515900 
